<svg width="110" height="22" viewBox="0 0 110 22" fill="none" xmlns="http://www.w3.org/2000/svg">
<path d="M0 16.7471V0.333008H4.28613L8.4541 12.6328H8.69043L12.8477 0.333008H17.1338V16.7471H13.9756V5.7041H13.6855L10.0117 16.7471H7.08984L3.48047 5.7041H3.16895V16.7471H0ZM18.8848 7.92773V5.30664H23.7188V16.7471H20.7539V7.92773H18.8848ZM20.0234 1.8584C20.0234 1.34993 20.2061 0.913086 20.5713 0.547852C20.9365 0.182617 21.3698 0 21.8711 0C22.3724 0 22.8057 0.182617 23.1709 0.547852C23.5361 0.913086 23.7188 1.34993 23.7188 1.8584C23.7188 2.35254 23.5361 2.77865 23.1709 3.13672C22.8057 3.49479 22.3724 3.67383 21.8711 3.67383C21.3698 3.67383 20.9365 3.49479 20.5713 3.13672C20.2061 2.77865 20.0234 2.35254 20.0234 1.8584ZM26.1895 16.7471V5.30664H28.9824V7.26172H29.2188C29.3763 6.66732 29.6878 6.19466 30.1533 5.84375C30.626 5.48568 31.181 5.30664 31.8184 5.30664H32.6992V8.4541H30.9805C30.2786 8.4541 29.7988 8.63672 29.541 9.00195C29.2832 9.36003 29.1543 9.9974 29.1543 10.9141V16.7471H26.1895ZM34.332 16.7471V5.30664H37.125V7.26172H37.3613C37.5189 6.66732 37.8304 6.19466 38.2959 5.84375C38.7686 5.48568 39.3236 5.30664 39.9609 5.30664H40.8418V8.4541H39.123C38.4212 8.4541 37.9414 8.63672 37.6836 9.00195C37.4258 9.36003 37.2969 9.9974 37.2969 10.9141V16.7471H34.332ZM41.626 13.9756C41.626 12.665 42.1953 11.6875 43.334 11.043C44.4727 10.3984 46.2702 10.0618 48.7266 10.0332V9.50684C48.7266 8.86947 48.5547 8.37891 48.2109 8.03516C47.8743 7.68424 47.3945 7.50879 46.7715 7.50879C46.2201 7.50879 45.7689 7.64486 45.418 7.91699C45.0742 8.18913 44.8809 8.57943 44.8379 9.08789H41.8408C42.027 7.76302 42.5749 6.74609 43.4844 6.03711C44.401 5.32812 45.5684 4.97363 46.9863 4.97363C48.4974 4.97363 49.6611 5.37826 50.4775 6.1875C51.2939 6.99674 51.7021 8.139 51.7021 9.61426V16.7471H48.877V15.1357H48.6621C47.8958 16.432 46.6855 17.0801 45.0312 17.0801C43.957 17.0801 43.1191 16.8115 42.5176 16.2744C41.9232 15.7373 41.626 14.971 41.626 13.9756ZM44.4619 13.4707C44.4619 13.8789 44.6016 14.1904 44.8809 14.4053C45.1673 14.6201 45.5755 14.7275 46.1055 14.7275C46.929 14.7275 47.57 14.4661 48.0283 13.9434C48.4938 13.4206 48.7266 12.6901 48.7266 11.752V11.623C47.2585 11.6445 46.1807 11.8057 45.4932 12.1064C44.8057 12.4072 44.4619 12.862 44.4619 13.4707Z" fill="white"/>
<path d="M57.0088 16.7471L62.9922 0.333008H66.6768L72.6602 16.7471H69.3086L68.2344 13.5352H61.4346L60.3604 16.7471H57.0088ZM62.4014 10.7207H67.2676L64.9795 3.89941H64.6895L62.4014 10.7207ZM74.1211 21.0117V5.30664H76.9141V6.98242H77.1719C77.4727 6.35938 77.9167 5.86882 78.5039 5.51074C79.0983 5.15267 79.8001 4.97363 80.6094 4.97363C82.0417 4.97363 83.2126 5.53223 84.1221 6.64941C85.0387 7.7666 85.4971 9.22754 85.4971 11.0322C85.4971 12.8369 85.0387 14.2979 84.1221 15.415C83.2126 16.5251 82.0417 17.0801 80.6094 17.0801C79.8717 17.0801 79.2272 16.9297 78.6758 16.6289C78.1243 16.3281 77.6839 15.9128 77.3545 15.3828H77.0859V21.0117H74.1211ZM77.0859 11.0322C77.0859 12.0062 77.3294 12.7939 77.8164 13.3955C78.3105 13.9899 78.9622 14.2871 79.7715 14.2871C80.5807 14.2871 81.2288 13.9899 81.7158 13.3955C82.21 12.7939 82.457 12.0062 82.457 11.0322C82.457 10.0511 82.21 9.26335 81.7158 8.66895C81.2217 8.06738 80.5736 7.7666 79.7715 7.7666C78.9694 7.7666 78.3213 8.06738 77.8271 8.66895C77.333 9.26335 77.0859 10.0511 77.0859 11.0322ZM87.5918 21.0117V5.30664H90.3848V6.98242H90.6426C90.9434 6.35938 91.3874 5.86882 91.9746 5.51074C92.569 5.15267 93.2708 4.97363 94.0801 4.97363C95.5124 4.97363 96.6833 5.53223 97.5928 6.64941C98.5094 7.7666 98.9678 9.22754 98.9678 11.0322C98.9678 12.8369 98.5094 14.2979 97.5928 15.415C96.6833 16.5251 95.5124 17.0801 94.0801 17.0801C93.3424 17.0801 92.6979 16.9297 92.1465 16.6289C91.5951 16.3281 91.1546 15.9128 90.8252 15.3828H90.5566V21.0117H87.5918ZM90.5566 11.0322C90.5566 12.0062 90.8001 12.7939 91.2871 13.3955C91.7812 13.9899 92.4329 14.2871 93.2422 14.2871C94.0514 14.2871 94.6995 13.9899 95.1865 13.3955C95.6807 12.7939 95.9277 12.0062 95.9277 11.0322C95.9277 10.0511 95.6807 9.26335 95.1865 8.66895C94.6924 8.06738 94.0443 7.7666 93.2422 7.7666C92.4401 7.7666 91.792 8.06738 91.2979 8.66895C90.8037 9.26335 90.5566 10.0511 90.5566 11.0322ZM100.16 13.0732H103.071C103.157 13.5674 103.394 13.9505 103.78 14.2227C104.167 14.4948 104.675 14.6309 105.306 14.6309C105.871 14.6309 106.312 14.5234 106.627 14.3086C106.949 14.0866 107.11 13.7786 107.11 13.3848C107.11 12.7689 106.716 12.4072 105.929 12.2998L103.898 12.042C102.76 11.8844 101.893 11.5228 101.299 10.957C100.704 10.3841 100.407 9.63574 100.407 8.71191C100.407 7.59473 100.815 6.69238 101.632 6.00488C102.448 5.31738 103.519 4.97363 104.844 4.97363C106.161 4.97363 107.257 5.31738 108.131 6.00488C109.012 6.68522 109.531 7.58757 109.688 8.71191H106.896C106.817 8.27507 106.602 7.9349 106.251 7.69141C105.907 7.44792 105.445 7.32617 104.865 7.32617C104.35 7.32617 103.941 7.43001 103.641 7.6377C103.347 7.84538 103.2 8.13184 103.2 8.49707C103.2 9.1416 103.662 9.52116 104.586 9.63574L106.584 9.92578C107.68 10.069 108.51 10.4199 109.076 10.9785C109.649 11.5371 109.936 12.2712 109.936 13.1807C109.936 14.348 109.506 15.2897 108.646 16.0059C107.787 16.722 106.666 17.0801 105.284 17.0801C103.895 17.0801 102.735 16.7148 101.804 15.9844C100.873 15.2539 100.325 14.2835 100.16 13.0732Z" fill="#B8C7FF"/>
</svg>
